<?xml version="1.0" encoding="utf-8"?>
<!-- Generator: Adobe Illustrator 24.3.0, SVG Export Plug-In . SVG Version: 6.00 Build 0)  -->
<svg version="1.1" id="레이어_1" xmlns="http://www.w3.org/2000/svg" xmlns:xlink="http://www.w3.org/1999/xlink" x="0px"
	 y="0px" viewBox="0 0 1920 1080" style="enable-background:new 0 0 1920 1080;" xml:space="preserve">
<style type="text/css">
	.st0{font-family:'Arial-BoldMT';}
	.st1{font-size:40px;}
	.st2{fill:#FFFFFF;}
	.st3{fill:none;stroke:#808080;stroke-width:7;stroke-miterlimit:10;}
	.st4{fill:#662D91;}
	.st5{fill:none;stroke:#FFAB5B;stroke-width:3;stroke-miterlimit:10;}
	.st6{fill:#FFAB5B;}
	.st7{font-size:33.2681px;}
	.st8{fill:none;stroke:#00879E;stroke-width:3;stroke-miterlimit:10;}
	.st9{fill:#00879E;}
	.st10{fill:none;stroke:#003092;stroke-width:3;stroke-miterlimit:10;}
	.st11{fill:#003092;}
</style>
<text transform="matrix(1 0 0 1 842.1134 793.8672)" class="st0 st1">Systolic Array</text>
<g>
	<path class="st2" d="M753.2,733.74c-4.14,0-7.5-3.36-7.5-7.5V286.21c0-4.14,3.36-7.5,7.5-7.5h439.37c4.14,0,7.5,3.36,7.5,7.5
		v440.03c0,4.14-3.36,7.5-7.5,7.5H753.2z"/>
	<path d="M1192.57,281.21c2.76,0,5,2.24,5,5v440.03c0,2.76-2.24,5-5,5H753.2c-2.76,0-5-2.24-5-5V286.21c0-2.76,2.24-5,5-5H1192.57
		 M1192.57,276.21H753.2c-5.5,0-10,4.5-10,10v440.03c0,5.5,4.5,10,10,10h439.37c5.5,0,10-4.5,10-10V286.21
		C1202.57,280.71,1198.07,276.21,1192.57,276.21L1192.57,276.21z"/>
</g>
<g>
	<line class="st3" x1="1119.63" y1="495.49" x2="1169.63" y2="495.49"/>
	<line class="st3" x1="1119.63" y1="598.49" x2="1169.63" y2="598.49"/>
	<line class="st3" x1="1119.63" y1="701.49" x2="1169.63" y2="701.49"/>
	<g>
		<line class="st4" x1="752.81" y1="348.97" x2="786.31" y2="348.97"/>
		<g>
			<line class="st5" x1="752.81" y1="348.97" x2="775.55" y2="348.97"/>
			<g>
				<polygon class="st6" points="773.36,356.45 786.31,348.97 773.36,341.5 				"/>
			</g>
		</g>
	</g>
	<g>
		<line class="st4" x1="752.67" y1="451.61" x2="786.17" y2="451.61"/>
		<g>
			<line class="st5" x1="752.67" y1="451.61" x2="775.41" y2="451.61"/>
			<g>
				<polygon class="st6" points="773.22,459.09 786.17,451.61 773.22,444.13 				"/>
			</g>
		</g>
	</g>
	<g>
		<line class="st4" x1="752.67" y1="554.61" x2="786.17" y2="554.61"/>
		<g>
			<line class="st5" x1="752.67" y1="554.61" x2="775.41" y2="554.61"/>
			<g>
				<polygon class="st6" points="773.22,562.09 786.17,554.61 773.22,547.13 				"/>
			</g>
		</g>
	</g>
	<line class="st3" x1="869.13" y1="323.99" x2="869.13" y2="373.99"/>
	<g>
		<path class="st2" d="M796.63,383.49c-4.14,0-7.5-3.36-7.5-7.5v-53.17c0-4.14,3.36-7.5,7.5-7.5h52.94c4.14,0,7.5,3.36,7.5,7.5
			v53.17c0,4.14-3.36,7.5-7.5,7.5H796.63z"/>
		<path d="M849.57,317.83c2.76,0,5,2.24,5,5v53.17c0,2.76-2.24,5-5,5h-52.94c-2.76,0-5-2.24-5-5v-53.17c0-2.76,2.24-5,5-5H849.57
			 M849.57,312.83h-52.94c-5.5,0-10,4.5-10,10v53.17c0,5.5,4.5,10,10,10h52.94c5.5,0,10-4.5,10-10v-53.17
			C859.57,317.33,855.07,312.83,849.57,312.83L849.57,312.83z"/>
	</g>
	<text transform="matrix(1 0 0 1 800.9083 358.2824)" class="st0 st7">PE</text>
	<line class="st3" x1="797.63" y1="393.49" x2="847.63" y2="393.49"/>
	<g>
		<g>
			<line class="st8" x1="807.39" y1="386.26" x2="807.39" y2="404.5"/>
			<g>
				<polygon class="st9" points="799.91,402.31 807.39,415.26 814.87,402.31 				"/>
			</g>
		</g>
	</g>
	<g>
		<g>
			<line class="st10" x1="837.39" y1="386.26" x2="837.39" y2="404.35"/>
			<g>
				<polygon class="st11" points="829.91,402.16 837.39,415.12 844.87,402.16 				"/>
			</g>
		</g>
	</g>
	<g>
		<line class="st4" x1="859.63" y1="348.49" x2="893.13" y2="348.49"/>
		<g>
			<line class="st5" x1="859.63" y1="348.49" x2="882.36" y2="348.49"/>
			<g>
				<polygon class="st6" points="880.17,355.97 893.13,348.49 880.17,341.01 				"/>
			</g>
		</g>
	</g>
	<line class="st3" x1="868.98" y1="426.63" x2="868.98" y2="476.63"/>
	<g>
		<path class="st2" d="M796.48,486.13c-4.14,0-7.5-3.36-7.5-7.5v-53.17c0-4.14,3.36-7.5,7.5-7.5h52.94c4.14,0,7.5,3.36,7.5,7.5
			v53.17c0,4.14-3.36,7.5-7.5,7.5H796.48z"/>
		<path d="M849.43,420.46c2.76,0,5,2.24,5,5v53.17c0,2.76-2.24,5-5,5h-52.94c-2.76,0-5-2.24-5-5v-53.17c0-2.76,2.24-5,5-5H849.43
			 M849.43,415.46h-52.94c-5.5,0-10,4.5-10,10v53.17c0,5.5,4.5,10,10,10h52.94c5.5,0,10-4.5,10-10v-53.17
			C859.43,419.96,854.93,415.46,849.43,415.46L849.43,415.46z"/>
	</g>
	<text transform="matrix(1 0 0 1 800.7672 460.919)" class="st0 st7">PE</text>
	<line class="st3" x1="797.48" y1="496.13" x2="847.48" y2="496.13"/>
	<g>
		<g>
			<line class="st8" x1="807.25" y1="488.9" x2="807.25" y2="507.14"/>
			<g>
				<polygon class="st9" points="799.77,504.95 807.25,517.9 814.73,504.95 				"/>
			</g>
		</g>
	</g>
	<g>
		<g>
			<line class="st10" x1="837.25" y1="488.9" x2="837.25" y2="506.99"/>
			<g>
				<polygon class="st11" points="829.77,504.8 837.25,517.75 844.73,504.8 				"/>
			</g>
		</g>
	</g>
	<g>
		<line class="st4" x1="859.48" y1="451.13" x2="892.98" y2="451.13"/>
		<g>
			<line class="st5" x1="859.48" y1="451.13" x2="882.22" y2="451.13"/>
			<g>
				<polygon class="st6" points="880.03,458.61 892.98,451.13 880.03,443.65 				"/>
			</g>
		</g>
	</g>
	<line class="st3" x1="868.98" y1="529.63" x2="868.98" y2="579.63"/>
	<g>
		<path class="st2" d="M796.48,589.13c-4.14,0-7.5-3.36-7.5-7.5v-53.17c0-4.14,3.36-7.5,7.5-7.5h52.94c4.14,0,7.5,3.36,7.5,7.5
			v53.17c0,4.14-3.36,7.5-7.5,7.5H796.48z"/>
		<path d="M849.43,523.46c2.76,0,5,2.24,5,5v53.17c0,2.76-2.24,5-5,5h-52.94c-2.76,0-5-2.24-5-5v-53.17c0-2.76,2.24-5,5-5H849.43
			 M849.43,518.46h-52.94c-5.5,0-10,4.5-10,10v53.17c0,5.5,4.5,10,10,10h52.94c5.5,0,10-4.5,10-10v-53.17
			C859.43,522.96,854.93,518.46,849.43,518.46L849.43,518.46z"/>
	</g>
	<text transform="matrix(1 0 0 1 800.7672 563.9189)" class="st0 st7">PE</text>
	<line class="st3" x1="797.48" y1="599.13" x2="847.48" y2="599.13"/>
	<g>
		<g>
			<line class="st8" x1="807.25" y1="591.9" x2="807.25" y2="610.14"/>
			<g>
				<polygon class="st9" points="799.77,607.95 807.25,620.9 814.73,607.95 				"/>
			</g>
		</g>
	</g>
	<g>
		<g>
			<line class="st10" x1="837.25" y1="591.9" x2="837.25" y2="609.99"/>
			<g>
				<polygon class="st11" points="829.77,607.8 837.25,620.75 844.73,607.8 				"/>
			</g>
		</g>
	</g>
	<g>
		<line class="st4" x1="859.48" y1="554.13" x2="892.98" y2="554.13"/>
		<g>
			<line class="st5" x1="859.48" y1="554.13" x2="882.22" y2="554.13"/>
			<g>
				<polygon class="st6" points="880.03,561.61 892.98,554.13 880.03,546.65 				"/>
			</g>
		</g>
	</g>
	<line class="st3" x1="868.98" y1="632.63" x2="868.98" y2="682.63"/>
	<g>
		<path class="st2" d="M796.48,692.13c-4.14,0-7.5-3.36-7.5-7.5v-53.17c0-4.14,3.36-7.5,7.5-7.5h52.94c4.14,0,7.5,3.36,7.5,7.5
			v53.17c0,4.14-3.36,7.5-7.5,7.5H796.48z"/>
		<path d="M849.43,626.46c2.76,0,5,2.24,5,5v53.17c0,2.76-2.24,5-5,5h-52.94c-2.76,0-5-2.24-5-5v-53.17c0-2.76,2.24-5,5-5H849.43
			 M849.43,621.46h-52.94c-5.5,0-10,4.5-10,10v53.17c0,5.5,4.5,10,10,10h52.94c5.5,0,10-4.5,10-10v-53.17
			C859.43,625.96,854.93,621.46,849.43,621.46L849.43,621.46z"/>
	</g>
	<text transform="matrix(1 0 0 1 800.7672 666.9189)" class="st0 st7">PE</text>
	<line class="st3" x1="797.48" y1="702.13" x2="847.48" y2="702.13"/>
	<g>
		<g>
			<line class="st10" x1="822.96" y1="694.9" x2="822.96" y2="712.99"/>
			<g>
				<polygon class="st11" points="815.48,710.8 822.96,723.75 830.44,710.8 				"/>
			</g>
		</g>
	</g>
	<g>
		<line class="st4" x1="859.48" y1="657.13" x2="892.98" y2="657.13"/>
		<g>
			<line class="st5" x1="859.48" y1="657.13" x2="882.22" y2="657.13"/>
			<g>
				<polygon class="st6" points="880.03,664.61 892.98,657.13 880.03,649.65 				"/>
			</g>
		</g>
	</g>
	<g>
		<line class="st4" x1="752.67" y1="657.61" x2="786.17" y2="657.61"/>
		<g>
			<line class="st5" x1="752.67" y1="657.61" x2="775.41" y2="657.61"/>
			<g>
				<polygon class="st6" points="773.22,665.09 786.17,657.61 773.22,650.13 				"/>
			</g>
		</g>
	</g>
	<line class="st3" x1="976.24" y1="323.72" x2="976.24" y2="373.72"/>
	<g>
		<path class="st2" d="M903.74,383.22c-4.14,0-7.5-3.36-7.5-7.5v-53.17c0-4.14,3.36-7.5,7.5-7.5h52.94c4.14,0,7.5,3.36,7.5,7.5
			v53.17c0,4.14-3.36,7.5-7.5,7.5H903.74z"/>
		<path d="M956.68,317.55c2.76,0,5,2.24,5,5v53.17c0,2.76-2.24,5-5,5h-52.94c-2.76,0-5-2.24-5-5v-53.17c0-2.76,2.24-5,5-5H956.68
			 M956.68,312.55h-52.94c-5.5,0-10,4.5-10,10v53.17c0,5.5,4.5,10,10,10h52.94c5.5,0,10-4.5,10-10v-53.17
			C966.68,317.05,962.18,312.55,956.68,312.55L956.68,312.55z"/>
	</g>
	<text transform="matrix(1 0 0 1 908.0223 358.0099)" class="st0 st7">PE</text>
	<line class="st3" x1="904.74" y1="393.22" x2="954.74" y2="393.22"/>
	<g>
		<g>
			<line class="st8" x1="914.5" y1="385.99" x2="914.5" y2="404.23"/>
			<g>
				<polygon class="st9" points="907.02,402.04 914.5,414.99 921.98,402.04 				"/>
			</g>
		</g>
	</g>
	<g>
		<g>
			<line class="st10" x1="944.5" y1="385.99" x2="944.5" y2="404.08"/>
			<g>
				<polygon class="st11" points="937.02,401.89 944.5,414.84 951.98,401.89 				"/>
			</g>
		</g>
	</g>
	<g>
		<line class="st4" x1="966.74" y1="348.22" x2="1000.24" y2="348.22"/>
		<g>
			<line class="st5" x1="966.74" y1="348.22" x2="989.48" y2="348.22"/>
			<g>
				<polygon class="st6" points="987.29,355.7 1000.24,348.22 987.29,340.74 				"/>
			</g>
		</g>
	</g>
	<line class="st3" x1="976.1" y1="426.36" x2="976.1" y2="476.36"/>
	<g>
		<path class="st2" d="M903.6,485.86c-4.14,0-7.5-3.36-7.5-7.5v-53.17c0-4.14,3.36-7.5,7.5-7.5h52.94c4.14,0,7.5,3.36,7.5,7.5v53.17
			c0,4.14-3.36,7.5-7.5,7.5H903.6z"/>
		<path d="M956.54,420.19c2.76,0,5,2.24,5,5v53.17c0,2.76-2.24,5-5,5H903.6c-2.76,0-5-2.24-5-5v-53.17c0-2.76,2.24-5,5-5H956.54
			 M956.54,415.19H903.6c-5.5,0-10,4.5-10,10v53.17c0,5.5,4.5,10,10,10h52.94c5.5,0,10-4.5,10-10v-53.17
			C966.54,419.69,962.04,415.19,956.54,415.19L956.54,415.19z"/>
	</g>
	<text transform="matrix(1 0 0 1 907.8813 460.6465)" class="st0 st7">PE</text>
	<line class="st3" x1="904.6" y1="495.86" x2="954.6" y2="495.86"/>
	<g>
		<g>
			<line class="st8" x1="914.36" y1="488.63" x2="914.36" y2="506.86"/>
			<g>
				<polygon class="st9" points="906.88,504.68 914.36,517.63 921.84,504.68 				"/>
			</g>
		</g>
	</g>
	<g>
		<g>
			<line class="st10" x1="944.36" y1="488.63" x2="944.36" y2="506.72"/>
			<g>
				<polygon class="st11" points="936.88,504.53 944.36,517.48 951.84,504.53 				"/>
			</g>
		</g>
	</g>
	<g>
		<line class="st4" x1="966.6" y1="450.86" x2="1000.1" y2="450.86"/>
		<g>
			<line class="st5" x1="966.6" y1="450.86" x2="989.34" y2="450.86"/>
			<g>
				<polygon class="st6" points="987.15,458.34 1000.1,450.86 987.15,443.38 				"/>
			</g>
		</g>
	</g>
	<line class="st3" x1="976.1" y1="529.36" x2="976.1" y2="579.36"/>
	<g>
		<path class="st2" d="M903.6,588.86c-4.14,0-7.5-3.36-7.5-7.5v-53.17c0-4.14,3.36-7.5,7.5-7.5h52.94c4.14,0,7.5,3.36,7.5,7.5v53.17
			c0,4.14-3.36,7.5-7.5,7.5H903.6z"/>
		<path d="M956.54,523.19c2.76,0,5,2.24,5,5v53.17c0,2.76-2.24,5-5,5H903.6c-2.76,0-5-2.24-5-5v-53.17c0-2.76,2.24-5,5-5H956.54
			 M956.54,518.19H903.6c-5.5,0-10,4.5-10,10v53.17c0,5.5,4.5,10,10,10h52.94c5.5,0,10-4.5,10-10v-53.17
			C966.54,522.69,962.04,518.19,956.54,518.19L956.54,518.19z"/>
	</g>
	<text transform="matrix(1 0 0 1 907.8813 563.6465)" class="st0 st7">PE</text>
	<line class="st3" x1="904.6" y1="598.86" x2="954.6" y2="598.86"/>
	<g>
		<g>
			<line class="st8" x1="914.36" y1="591.63" x2="914.36" y2="609.86"/>
			<g>
				<polygon class="st9" points="906.88,607.68 914.36,620.63 921.84,607.68 				"/>
			</g>
		</g>
	</g>
	<g>
		<g>
			<line class="st10" x1="944.36" y1="591.63" x2="944.36" y2="609.72"/>
			<g>
				<polygon class="st11" points="936.88,607.53 944.36,620.48 951.84,607.53 				"/>
			</g>
		</g>
	</g>
	<g>
		<line class="st4" x1="966.6" y1="553.86" x2="1000.1" y2="553.86"/>
		<g>
			<line class="st5" x1="966.6" y1="553.86" x2="989.34" y2="553.86"/>
			<g>
				<polygon class="st6" points="987.15,561.34 1000.1,553.86 987.15,546.38 				"/>
			</g>
		</g>
	</g>
	<line class="st3" x1="976.1" y1="632.36" x2="976.1" y2="682.36"/>
	<g>
		<path class="st2" d="M903.6,691.86c-4.14,0-7.5-3.36-7.5-7.5v-53.17c0-4.14,3.36-7.5,7.5-7.5h52.94c4.14,0,7.5,3.36,7.5,7.5v53.17
			c0,4.14-3.36,7.5-7.5,7.5H903.6z"/>
		<path d="M956.54,626.19c2.76,0,5,2.24,5,5v53.17c0,2.76-2.24,5-5,5H903.6c-2.76,0-5-2.24-5-5v-53.17c0-2.76,2.24-5,5-5H956.54
			 M956.54,621.19H903.6c-5.5,0-10,4.5-10,10v53.17c0,5.5,4.5,10,10,10h52.94c5.5,0,10-4.5,10-10v-53.17
			C966.54,625.69,962.04,621.19,956.54,621.19L956.54,621.19z"/>
	</g>
	<text transform="matrix(1 0 0 1 907.8813 666.6465)" class="st0 st7">PE</text>
	<line class="st3" x1="904.6" y1="701.86" x2="954.6" y2="701.86"/>
	<g>
		<g>
			<line class="st10" x1="930.07" y1="694.63" x2="930.07" y2="712.72"/>
			<g>
				<polygon class="st11" points="922.59,710.53 930.07,723.48 937.55,710.53 				"/>
			</g>
		</g>
	</g>
	<g>
		<line class="st4" x1="966.6" y1="656.86" x2="1000.1" y2="656.86"/>
		<g>
			<line class="st5" x1="966.6" y1="656.86" x2="989.34" y2="656.86"/>
			<g>
				<polygon class="st6" points="987.15,664.34 1000.1,656.86 987.15,649.38 				"/>
			</g>
		</g>
	</g>
	<line class="st3" x1="1083.84" y1="323.72" x2="1083.84" y2="373.72"/>
	<g>
		<path class="st2" d="M1011.34,383.22c-4.14,0-7.5-3.36-7.5-7.5v-53.17c0-4.14,3.36-7.5,7.5-7.5h52.94c4.14,0,7.5,3.36,7.5,7.5
			v53.17c0,4.14-3.36,7.5-7.5,7.5H1011.34z"/>
		<path d="M1064.28,317.55c2.76,0,5,2.24,5,5v53.17c0,2.76-2.24,5-5,5h-52.94c-2.76,0-5-2.24-5-5v-53.17c0-2.76,2.24-5,5-5H1064.28
			 M1064.28,312.55h-52.94c-5.5,0-10,4.5-10,10v53.17c0,5.5,4.5,10,10,10h52.94c5.5,0,10-4.5,10-10v-53.17
			C1074.28,317.05,1069.78,312.55,1064.28,312.55L1064.28,312.55z"/>
	</g>
	<text transform="matrix(1 0 0 1 1015.6187 358.0099)" class="st0 st7">PE</text>
	<line class="st3" x1="1012.34" y1="393.22" x2="1062.34" y2="393.22"/>
	<g>
		<g>
			<line class="st8" x1="1022.1" y1="385.99" x2="1022.1" y2="404.23"/>
			<g>
				<polygon class="st9" points="1014.62,402.04 1022.1,414.99 1029.58,402.04 				"/>
			</g>
		</g>
	</g>
	<g>
		<g>
			<line class="st10" x1="1052.1" y1="385.99" x2="1052.1" y2="404.08"/>
			<g>
				<polygon class="st11" points="1044.62,401.89 1052.1,414.84 1059.58,401.89 				"/>
			</g>
		</g>
	</g>
	<g>
		<line class="st4" x1="1074.34" y1="348.22" x2="1107.84" y2="348.22"/>
		<g>
			<line class="st5" x1="1074.34" y1="348.22" x2="1097.07" y2="348.22"/>
			<g>
				<polygon class="st6" points="1094.88,355.7 1107.84,348.22 1094.88,340.74 				"/>
			</g>
		</g>
	</g>
	<line class="st3" x1="1083.7" y1="426.36" x2="1083.7" y2="476.36"/>
	<g>
		<path class="st2" d="M1011.2,485.86c-4.14,0-7.5-3.36-7.5-7.5v-53.17c0-4.14,3.36-7.5,7.5-7.5h52.94c4.14,0,7.5,3.36,7.5,7.5
			v53.17c0,4.14-3.36,7.5-7.5,7.5H1011.2z"/>
		<path d="M1064.14,420.19c2.76,0,5,2.24,5,5v53.17c0,2.76-2.24,5-5,5h-52.94c-2.76,0-5-2.24-5-5v-53.17c0-2.76,2.24-5,5-5H1064.14
			 M1064.14,415.19h-52.94c-5.5,0-10,4.5-10,10v53.17c0,5.5,4.5,10,10,10h52.94c5.5,0,10-4.5,10-10v-53.17
			C1074.14,419.69,1069.64,415.19,1064.14,415.19L1064.14,415.19z"/>
	</g>
	<text transform="matrix(1 0 0 1 1015.4777 460.6465)" class="st0 st7">PE</text>
	<line class="st3" x1="1012.2" y1="495.86" x2="1062.2" y2="495.86"/>
	<g>
		<g>
			<line class="st8" x1="1021.96" y1="488.63" x2="1021.96" y2="506.86"/>
			<g>
				<polygon class="st9" points="1014.48,504.68 1021.96,517.63 1029.44,504.68 				"/>
			</g>
		</g>
	</g>
	<g>
		<g>
			<line class="st10" x1="1051.96" y1="488.63" x2="1051.96" y2="506.72"/>
			<g>
				<polygon class="st11" points="1044.48,504.53 1051.96,517.48 1059.44,504.53 				"/>
			</g>
		</g>
	</g>
	<g>
		<line class="st4" x1="1074.2" y1="450.86" x2="1107.7" y2="450.86"/>
		<g>
			<line class="st5" x1="1074.2" y1="450.86" x2="1096.93" y2="450.86"/>
			<g>
				<polygon class="st6" points="1094.74,458.34 1107.7,450.86 1094.74,443.38 				"/>
			</g>
		</g>
	</g>
	<line class="st3" x1="1083.7" y1="529.36" x2="1083.7" y2="579.36"/>
	<g>
		<path class="st2" d="M1011.2,588.86c-4.14,0-7.5-3.36-7.5-7.5v-53.17c0-4.14,3.36-7.5,7.5-7.5h52.94c4.14,0,7.5,3.36,7.5,7.5
			v53.17c0,4.14-3.36,7.5-7.5,7.5H1011.2z"/>
		<path d="M1064.14,523.19c2.76,0,5,2.24,5,5v53.17c0,2.76-2.24,5-5,5h-52.94c-2.76,0-5-2.24-5-5v-53.17c0-2.76,2.24-5,5-5H1064.14
			 M1064.14,518.19h-52.94c-5.5,0-10,4.5-10,10v53.17c0,5.5,4.5,10,10,10h52.94c5.5,0,10-4.5,10-10v-53.17
			C1074.14,522.69,1069.64,518.19,1064.14,518.19L1064.14,518.19z"/>
	</g>
	<text transform="matrix(1 0 0 1 1015.4777 563.6465)" class="st0 st7">PE</text>
	<line class="st3" x1="1012.2" y1="598.86" x2="1062.2" y2="598.86"/>
	<g>
		<g>
			<line class="st8" x1="1021.96" y1="591.63" x2="1021.96" y2="609.86"/>
			<g>
				<polygon class="st9" points="1014.48,607.68 1021.96,620.63 1029.44,607.68 				"/>
			</g>
		</g>
	</g>
	<g>
		<g>
			<line class="st10" x1="1051.96" y1="591.63" x2="1051.96" y2="609.72"/>
			<g>
				<polygon class="st11" points="1044.48,607.53 1051.96,620.48 1059.44,607.53 				"/>
			</g>
		</g>
	</g>
	<g>
		<line class="st4" x1="1074.2" y1="553.86" x2="1107.7" y2="553.86"/>
		<g>
			<line class="st5" x1="1074.2" y1="553.86" x2="1096.93" y2="553.86"/>
			<g>
				<polygon class="st6" points="1094.74,561.34 1107.7,553.86 1094.74,546.38 				"/>
			</g>
		</g>
	</g>
	<line class="st3" x1="1083.7" y1="632.36" x2="1083.7" y2="682.36"/>
	<g>
		<path class="st2" d="M1011.2,691.86c-4.14,0-7.5-3.36-7.5-7.5v-53.17c0-4.14,3.36-7.5,7.5-7.5h52.94c4.14,0,7.5,3.36,7.5,7.5
			v53.17c0,4.14-3.36,7.5-7.5,7.5H1011.2z"/>
		<path d="M1064.14,626.19c2.76,0,5,2.24,5,5v53.17c0,2.76-2.24,5-5,5h-52.94c-2.76,0-5-2.24-5-5v-53.17c0-2.76,2.24-5,5-5H1064.14
			 M1064.14,621.19h-52.94c-5.5,0-10,4.5-10,10v53.17c0,5.5,4.5,10,10,10h52.94c5.5,0,10-4.5,10-10v-53.17
			C1074.14,625.69,1069.64,621.19,1064.14,621.19L1064.14,621.19z"/>
	</g>
	<text transform="matrix(1 0 0 1 1015.4777 666.6465)" class="st0 st7">PE</text>
	<line class="st3" x1="1012.2" y1="701.86" x2="1062.2" y2="701.86"/>
	<g>
		<g>
			<line class="st10" x1="1037.67" y1="694.63" x2="1037.67" y2="712.72"/>
			<g>
				<polygon class="st11" points="1030.19,710.53 1037.67,723.48 1045.15,710.53 				"/>
			</g>
		</g>
	</g>
	<g>
		<line class="st4" x1="1074.2" y1="656.86" x2="1107.7" y2="656.86"/>
		<g>
			<line class="st5" x1="1074.2" y1="656.86" x2="1096.93" y2="656.86"/>
			<g>
				<polygon class="st6" points="1094.74,664.34 1107.7,656.86 1094.74,649.38 				"/>
			</g>
		</g>
	</g>
	<g>
		<g>
			<line class="st8" x1="823.1" y1="283.49" x2="823.1" y2="301.73"/>
			<g>
				<polygon class="st9" points="815.62,299.54 823.1,312.49 830.58,299.54 				"/>
			</g>
		</g>
	</g>
	<g>
		<g>
			<line class="st8" x1="930.21" y1="283.22" x2="930.21" y2="301.46"/>
			<g>
				<polygon class="st9" points="922.73,299.27 930.21,312.22 937.69,299.27 				"/>
			</g>
		</g>
	</g>
	<g>
		<g>
			<line class="st8" x1="1037.81" y1="283.22" x2="1037.81" y2="301.46"/>
			<g>
				<polygon class="st9" points="1030.33,299.27 1037.81,312.22 1045.29,299.27 				"/>
			</g>
		</g>
	</g>
	<g>
		<g>
			<line class="st8" x1="1144.62" y1="282.7" x2="1144.62" y2="300.93"/>
			<g>
				<polygon class="st9" points="1137.14,298.75 1144.62,311.7 1152.1,298.75 				"/>
			</g>
		</g>
	</g>
	<g>
		<path class="st2" d="M1118.15,382.7c-4.14,0-7.5-3.36-7.5-7.5v-53.17c0-4.14,3.36-7.5,7.5-7.5h52.94c4.14,0,7.5,3.36,7.5,7.5
			v53.17c0,4.14-3.36,7.5-7.5,7.5H1118.15z"/>
		<path d="M1171.09,317.03c2.76,0,5,2.24,5,5v53.17c0,2.76-2.24,5-5,5h-52.94c-2.76,0-5-2.24-5-5v-53.17c0-2.76,2.24-5,5-5H1171.09
			 M1171.09,312.03h-52.94c-5.5,0-10,4.5-10,10v53.17c0,5.5,4.5,10,10,10h52.94c5.5,0,10-4.5,10-10v-53.17
			C1181.09,316.53,1176.59,312.03,1171.09,312.03L1171.09,312.03z"/>
	</g>
	<text transform="matrix(1 0 0 1 1122.4331 357.487)" class="st0 st7">PE</text>
	<line class="st3" x1="1119.15" y1="392.7" x2="1169.15" y2="392.7"/>
	<g>
		<g>
			<line class="st8" x1="1128.91" y1="385.47" x2="1128.91" y2="403.7"/>
			<g>
				<polygon class="st9" points="1121.43,401.52 1128.91,414.47 1136.39,401.52 				"/>
			</g>
		</g>
	</g>
	<g>
		<g>
			<line class="st10" x1="1158.91" y1="385.47" x2="1158.91" y2="403.56"/>
			<g>
				<polygon class="st11" points="1151.43,401.37 1158.91,414.32 1166.39,401.37 				"/>
			</g>
		</g>
	</g>
	<g>
		<path class="st2" d="M1118.01,485.33c-4.14,0-7.5-3.36-7.5-7.5v-53.17c0-4.14,3.36-7.5,7.5-7.5h52.94c4.14,0,7.5,3.36,7.5,7.5
			v53.17c0,4.14-3.36,7.5-7.5,7.5H1118.01z"/>
		<path d="M1170.95,419.67c2.76,0,5,2.24,5,5v53.17c0,2.76-2.24,5-5,5h-52.94c-2.76,0-5-2.24-5-5v-53.17c0-2.76,2.24-5,5-5H1170.95
			 M1170.95,414.67h-52.94c-5.5,0-10,4.5-10,10v53.17c0,5.5,4.5,10,10,10h52.94c5.5,0,10-4.5,10-10v-53.17
			C1180.95,419.17,1176.45,414.67,1170.95,414.67L1170.95,414.67z"/>
	</g>
	<text transform="matrix(1 0 0 1 1122.292 460.1236)" class="st0 st7">PE</text>
	<g>
		<g>
			<line class="st8" x1="1128.77" y1="488.11" x2="1128.77" y2="506.34"/>
			<g>
				<polygon class="st9" points="1121.29,504.15 1128.77,517.11 1136.25,504.15 				"/>
			</g>
		</g>
	</g>
	<g>
		<g>
			<line class="st10" x1="1158.77" y1="488.11" x2="1158.77" y2="506.19"/>
			<g>
				<polygon class="st11" points="1151.29,504 1158.77,516.96 1166.25,504 				"/>
			</g>
		</g>
	</g>
	<g>
		<path class="st2" d="M1118.01,588.33c-4.14,0-7.5-3.36-7.5-7.5v-53.17c0-4.14,3.36-7.5,7.5-7.5h52.94c4.14,0,7.5,3.36,7.5,7.5
			v53.17c0,4.14-3.36,7.5-7.5,7.5H1118.01z"/>
		<path d="M1170.95,522.67c2.76,0,5,2.24,5,5v53.17c0,2.76-2.24,5-5,5h-52.94c-2.76,0-5-2.24-5-5v-53.17c0-2.76,2.24-5,5-5H1170.95
			 M1170.95,517.67h-52.94c-5.5,0-10,4.5-10,10v53.17c0,5.5,4.5,10,10,10h52.94c5.5,0,10-4.5,10-10v-53.17
			C1180.95,522.17,1176.45,517.67,1170.95,517.67L1170.95,517.67z"/>
	</g>
	<text transform="matrix(1 0 0 1 1122.292 563.1236)" class="st0 st7">PE</text>
	<g>
		<g>
			<line class="st8" x1="1128.77" y1="591.11" x2="1128.77" y2="609.34"/>
			<g>
				<polygon class="st9" points="1121.29,607.15 1128.77,620.11 1136.25,607.15 				"/>
			</g>
		</g>
	</g>
	<g>
		<g>
			<line class="st10" x1="1158.77" y1="591.11" x2="1158.77" y2="609.19"/>
			<g>
				<polygon class="st11" points="1151.29,607 1158.77,619.96 1166.25,607 				"/>
			</g>
		</g>
	</g>
	<g>
		<path class="st2" d="M1118.01,691.33c-4.14,0-7.5-3.36-7.5-7.5v-53.17c0-4.14,3.36-7.5,7.5-7.5h52.94c4.14,0,7.5,3.36,7.5,7.5
			v53.17c0,4.14-3.36,7.5-7.5,7.5H1118.01z"/>
		<path d="M1170.95,625.67c2.76,0,5,2.24,5,5v53.17c0,2.76-2.24,5-5,5h-52.94c-2.76,0-5-2.24-5-5v-53.17c0-2.76,2.24-5,5-5H1170.95
			 M1170.95,620.67h-52.94c-5.5,0-10,4.5-10,10v53.17c0,5.5,4.5,10,10,10h52.94c5.5,0,10-4.5,10-10v-53.17
			C1180.95,625.17,1176.45,620.67,1170.95,620.67L1170.95,620.67z"/>
	</g>
	<text transform="matrix(1 0 0 1 1122.292 666.1236)" class="st0 st7">PE</text>
	<g>
		<g>
			<line class="st10" x1="1144.48" y1="694.11" x2="1144.48" y2="712.19"/>
			<g>
				<polygon class="st11" points="1137,710 1144.48,722.96 1151.96,710 				"/>
			</g>
		</g>
	</g>
</g>
</svg>
